<svg width="18" height="18" viewBox="0 0 16 14" fill="none" xmlns="http://www.w3.org/2000/svg">
<path d="M6.0625 0H9.90625C10.5625 0 11.125 0.4375 11.3125 1.03125L11.6562 2H14C15.0938 2 16 2.90625 16 4V12C16 13.125 15.0938 14 14 14H2C0.875 14 0 13.125 0 12V4C0 2.90625 0.875 2 2 2H4.3125L4.65625 1.03125C4.84375 0.4375 5.40625 0 6.0625 0ZM8 11C9.65625 11 11 9.65625 11 8C11 6.34375 9.65625 5 8 5C6.3125 5 5 6.34375 5 8C5 9.65625 6.3125 11 8 11Z" fill="white"/>
<path d="M11.3125 1.03125L10.8357 1.18182L10.8384 1.19018L10.8413 1.19845L11.3125 1.03125ZM11.6562 2L11.185 2.1672L11.3031 2.5H11.6562V2ZM4.3125 2V2.5H4.66563L4.78371 2.1672L4.3125 2ZM4.65625 1.03125L5.12746 1.19845L5.1304 1.19018L5.13304 1.18182L4.65625 1.03125ZM6.0625 0.5H9.90625V-0.5H6.0625V0.5ZM9.90625 0.5C10.3374 0.5 10.7118 0.789344 10.8357 1.18182L11.7893 0.880684C11.5382 0.0856564 10.7876 -0.5 9.90625 -0.5V0.5ZM10.8413 1.19845L11.185 2.1672L12.1275 1.8328L11.7837 0.864045L10.8413 1.19845ZM11.6562 2.5H14V1.5H11.6562V2.5ZM14 2.5C14.8176 2.5 15.5 3.18239 15.5 4H16.5C16.5 2.63011 15.3699 1.5 14 1.5V2.5ZM15.5 4V12H16.5V4H15.5ZM15.5 12C15.5 12.8438 14.8227 13.5 14 13.5V14.5C15.3648 14.5 16.5 13.4062 16.5 12H15.5ZM14 13.5H2V14.5H14V13.5ZM2 13.5C1.15114 13.5 0.5 12.8489 0.5 12H-0.5C-0.5 13.4011 0.598858 14.5 2 14.5V13.5ZM0.5 12V4H-0.5V12H0.5ZM0.5 4C0.5 3.17728 1.15622 2.5 2 2.5V1.5C0.593775 1.5 -0.5 2.63522 -0.5 4H0.5ZM2 2.5H4.3125V1.5H2V2.5ZM4.78371 2.1672L5.12746 1.19845L4.18504 0.864045L3.84129 1.8328L4.78371 2.1672ZM5.13304 1.18182C5.25698 0.789344 5.63137 0.5 6.0625 0.5V-0.5C5.18113 -0.5 4.43052 0.0856564 4.17946 0.880684L5.13304 1.18182ZM8 11.5C9.93239 11.5 11.5 9.93239 11.5 8H10.5C10.5 9.38011 9.38011 10.5 8 10.5V11.5ZM11.5 8C11.5 6.06761 9.93239 4.5 8 4.5V5.5C9.38011 5.5 10.5 6.61989 10.5 8H11.5ZM8 4.5C6.03296 4.5 4.5 6.07102 4.5 8H5.5C5.5 6.61648 6.59204 5.5 8 5.5V4.5ZM4.5 8C4.5 9.92898 6.03296 11.5 8 11.5V10.5C6.59204 10.5 5.5 9.38352 5.5 8H4.5Z" fill="black"/>
</svg>
