<svg width="12" height="12" viewBox="0 0 10 10" fill="none" xmlns="http://www.w3.org/2000/svg">
<path d="M6.65625 1.3125C7.04688 0.921875 7.6875 0.921875 8.07812 1.3125L8.6875 1.92188C9.07812 2.3125 9.07812 2.95312 8.6875 3.34375L7.9375 4.09375L5.90625 2.0625L6.65625 1.3125ZM7.57812 4.45312L3.9375 8.09375C3.78125 8.25 3.57812 8.375 3.35938 8.4375L1.46875 8.98438C1.34375 9.03125 1.20312 9 1.10938 8.89062C1 8.79688 0.96875 8.65625 1 8.53125L1.5625 6.64062C1.625 6.42188 1.75 6.21875 1.90625 6.0625L5.54688 2.42188L7.57812 4.45312Z" fill="white"/>
</svg>
