<svg width="17" height="15" viewBox="0 0 15 13" fill="none" xmlns="http://www.w3.org/2000/svg">
<path d="M4.03125 3.59375C5.34375 2.28125 7.5 2.28125 8.8125 3.59375C9.98438 4.76562 10.1484 6.61719 9.1875 7.97656L9.16406 8C8.92969 8.35156 8.46094 8.42188 8.10938 8.1875C7.78125 7.92969 7.6875 7.46094 7.94531 7.13281L7.96875 7.10938C8.50781 6.33594 8.41406 5.32812 7.75781 4.67188C7.03125 3.92188 5.83594 3.92188 5.08594 4.67188L2.46094 7.29688C1.71094 8.02344 1.71094 9.21875 2.46094 9.96875C3.11719 10.625 4.14844 10.6953 4.89844 10.1797L4.92188 10.1328C5.27344 9.89844 5.74219 9.96875 5.97656 10.3203C6.21094 10.6484 6.14062 11.1172 5.8125 11.375L5.76562 11.3984C4.40625 12.3594 2.57812 12.1953 1.40625 11.0234C0.0703125 9.71094 0.0703125 7.55469 1.40625 6.24219L4.03125 3.59375ZM10.9453 9.40625C9.63281 10.7422 7.47656 10.7422 6.16406 9.40625C4.99219 8.23438 4.82812 6.40625 5.78906 5.04688L5.8125 5.02344C6.04688 4.67188 6.51562 4.60156 6.86719 4.83594C7.19531 5.07031 7.28906 5.53906 7.03125 5.89062L7.00781 5.91406C6.46875 6.66406 6.5625 7.69531 7.21875 8.35156C7.94531 9.10156 9.14062 9.10156 9.89062 8.35156L12.5156 5.72656C13.2656 4.97656 13.2656 3.78125 12.5156 3.05469C11.8594 2.39844 10.8281 2.30469 10.0781 2.84375L10.0547 2.86719C9.70312 3.125 9.23438 3.03125 9 2.70312C8.76562 2.375 8.83594 1.90625 9.16406 1.64844L9.21094 1.625C10.5703 0.664062 12.3984 0.828125 13.5703 2C14.9062 3.3125 14.9062 5.46875 13.5703 6.78125L10.9453 9.40625Z" fill="white"/>
</svg>
