<svg width="100%" viewBox="0 0 320 242" fill="none" xmlns="http://www.w3.org/2000/svg">
<mask id="mask0_338_59" style="mask-type:alpha" maskUnits="userSpaceOnUse" x="0" y="0" width="320" height="242">
<rect width="320" height="242" fill="#D9D9D9"/>
</mask>
<g mask="url(#mask0_338_59)">
<path d="M341.934 119.93L243.99 142.362C222.457 147.294 208.998 168.749 213.93 190.282C218.862 211.816 240.317 225.275 261.85 220.343L359.794 197.911C381.328 192.979 394.787 171.524 389.855 149.99C384.923 128.456 363.468 114.998 341.934 119.93Z" fill="#EA4B35"/>
<path d="M200 179.5C200 186.08 189.07 190.43 186.7 196.15C184.33 201.87 188.8 212.86 184.33 217.33C179.86 221.8 169.08 217.24 163.15 219.7C157.22 222.16 153.08 233 146.5 233C139.92 233 135.57 222.07 129.85 219.7C123.92 217.24 113.14 221.8 108.67 217.33C104.2 212.86 108.76 202.08 106.3 196.15C103.84 190.22 93 186.08 93 179.5C93 172.92 103.93 168.57 106.3 162.85C108.67 157.13 104.2 146.14 108.67 141.67C113.14 137.2 123.92 141.76 129.85 139.3C135.78 136.84 139.92 126 146.5 126C153.08 126 157.43 136.93 163.15 139.3C169.08 141.76 179.86 137.2 184.33 141.67C188.8 146.14 184.24 156.92 186.7 162.85C189.16 168.78 200 172.92 200 179.5Z" fill="#FF9FD5"/>
<path d="M25.5 233C55.0472 233 79 209.047 79 179.5C79 149.953 55.0472 126 25.5 126C-4.04723 126 -28 149.953 -28 179.5C-28 209.047 -4.04723 233 25.5 233Z" fill="#FFCF00"/>
<path d="M14.0795 179.83C15.8994 178.989 15.3315 173.885 12.8111 168.431C10.2907 162.976 6.77212 159.236 4.95222 160.077C3.13231 160.917 3.70019 166.021 6.22062 171.476C8.74105 176.93 12.2596 180.671 14.0795 179.83Z" fill="#170000"/>
<path d="M35.4818 169.955C37.3017 169.114 36.7339 164.01 34.2134 158.556C31.693 153.101 28.1745 149.361 26.3546 150.202C24.5346 151.042 25.1025 156.146 27.623 161.601C30.1434 167.055 33.6619 170.796 35.4818 169.955Z" fill="#170000"/>
<path d="M52.5001 180.69C52.5001 180.69 73.91 189.56 66.8 201.81C59.7 214.06 43.8 197.58 43.8 197.58C43.8 197.58 52.1301 190.76 52.4901 180.69H52.5001Z" fill="#F21D00"/>
<path d="M-2.94995 190.63C-2.94995 190.63 3.41005 192.17 4.94005 185.81" stroke="black" stroke-width="2" stroke-linecap="round" stroke-linejoin="round"/>
<path d="M50.2301 164.42C50.2301 164.42 60.6601 187.64 38.6801 201.47C16.7001 215.3 2.08008 189.95 2.08008 189.95" stroke="black" stroke-width="2" stroke-linecap="round" stroke-linejoin="round"/>
<path d="M45.46 163.56C45.46 163.56 51.51 166.03 53.99 159.98" stroke="black" stroke-width="2" stroke-linecap="round" stroke-linejoin="round"/>
<path d="M52.5001 180.69C52.5001 180.69 73.91 189.56 66.8 201.81C59.7 214.06 43.8 197.58 43.8 197.58C43.8 197.58 52.1301 190.76 52.4901 180.69H52.5001Z" stroke="black" stroke-width="2" stroke-linecap="round" stroke-linejoin="round"/>
<path d="M49.8301 190.31C49.8301 190.31 61.5901 195.55 63.3501 198.99" stroke="black" stroke-width="2" stroke-linecap="round" stroke-linejoin="round"/>
<path d="M277 111C300.748 111 320 91.7482 320 68C320 44.2518 300.748 25 277 25C253.252 25 234 44.2518 234 68C234 91.7482 253.252 111 277 111Z" fill="#298144"/>
<path d="M270.6 54.27C270.6 54.27 268.77 57.52 270.6 61.39" stroke="#1A1A1A" stroke-width="3" stroke-linecap="round" stroke-linejoin="round"/>
<path d="M285.1 54.27C285.1 54.27 283.41 57.93 283.41 61.59" stroke="#1A1A1A" stroke-width="3" stroke-linecap="round" stroke-linejoin="round"/>
<path d="M262.06 78.98C262.06 78.98 263.28 74.41 266.94 74.41C270.6 74.41 272.43 81.73 277.92 81.73C283.41 81.73 279.75 76.24 281.58 76.24C283.41 76.24 283.41 81.73 288.9 79.9C294.39 78.07 292.56 70.75 292.56 70.75" stroke="#1A1A1A" stroke-width="3" stroke-linecap="round" stroke-linejoin="round"/>
<path d="M189.152 34.6963L30.6932 12.5393C8.81467 9.48002 -11.4014 24.7361 -14.4607 46.6146C-17.5199 68.4931 -2.26387 88.7092 19.6147 91.7685L178.073 113.926C199.952 116.985 220.168 101.729 223.227 79.8502C226.286 57.9717 211.03 37.7556 189.152 34.6963Z" fill="#1489CE"/>
</g>
</svg>
