<svg width="8" height="8" viewBox="0 0 8 8" fill="none" xmlns="http://www.w3.org/2000/svg">
<path d="M4 0C1.78125 0 0 1.79688 0 4C0 6.21875 1.78125 8 4 8C6.20312 8 8 6.21875 8 4C8 1.79688 6.20312 0 4 0ZM3.625 2.375C3.625 2.17188 3.78125 2 4 2C4.20312 2 4.375 2.17188 4.375 2.375V4.375C4.375 4.59375 4.20312 4.75 4 4.75C3.78125 4.75 3.625 4.59375 3.625 4.375V2.375ZM4 6.25C3.71875 6.25 3.5 6.03125 3.5 5.76562C3.5 5.5 3.71875 5.28125 4 5.28125C4.26562 5.28125 4.48438 5.5 4.48438 5.76562C4.48438 6.03125 4.26562 6.25 4 6.25Z" fill="#FD4747"/>
</svg>
