<svg width="7" height="6" viewBox="0 0 7 6" fill="current" xmlns="http://www.w3.org/2000/svg">
<path d="M5.84375 4.65625C6.04688 4.84375 6.04688 5.17188 5.84375 5.35938C5.75 5.45312 5.625 5.5 5.5 5.5C5.35938 5.5 5.23438 5.45312 5.14062 5.35938L3.5 3.71875L1.84375 5.35938C1.75 5.45312 1.625 5.5 1.5 5.5C1.35938 5.5 1.23438 5.45312 1.14062 5.35938C0.9375 5.17188 0.9375 4.84375 1.14062 4.65625L2.78125 3L1.14062 1.35938C0.9375 1.17188 0.9375 0.84375 1.14062 0.65625C1.32812 0.453125 1.65625 0.453125 1.84375 0.65625L3.5 2.29688L5.14062 0.65625C5.32812 0.453125 5.65625 0.453125 5.84375 0.65625C6.04688 0.84375 6.04688 1.17188 5.84375 1.35938L4.20312 3.01562L5.84375 4.65625Z" fill="current"/>
</svg>
