<svg width="288" height="123" viewBox="0 0 288 123" fill="none" xmlns="http://www.w3.org/2000/svg">
<path d="M62.3492 49.1894L63.5292 59.7594L52.9592 60.9394L51.7792 50.3694L62.3492 49.1894ZM30.6292 52.7194L31.8092 63.2894L21.2392 64.4694L20.0592 53.8994L30.6292 52.7194ZM52.9592 60.9394L54.1392 71.5094L43.5692 72.6894L45.9192 93.8394L24.7692 96.1894L23.5892 85.6194L34.1592 84.4394L31.8092 63.2894L52.9592 60.9394ZM56.4892 92.6594L57.6692 103.229L47.0992 104.409L45.9192 93.8394L56.4892 92.6594ZM24.7692 96.1894L25.9492 106.759L15.3792 107.939L14.1992 97.3694L24.7692 96.1894ZM60.7792 35.0894L50.2092 36.2694C45.9992 36.7394 42.4192 39.0094 40.1692 42.2194C37.2592 39.5794 33.2792 38.1494 29.0592 38.6194L18.4892 39.7994C10.6992 40.6694 5.08924 47.6794 5.95924 55.4694L7.13924 66.0394C7.60924 70.2494 9.87924 73.8294 13.0892 76.0794C11.1292 78.2394 9.83924 80.9894 9.49924 83.9794C3.38924 86.1194 -0.660757 92.2494 0.0892429 98.9394L1.26924 109.509C2.13924 117.299 9.14924 122.909 16.9392 122.039L27.5092 120.859C31.7192 120.389 35.2992 118.119 37.5492 114.909C40.4592 117.549 44.4392 118.979 48.6592 118.509L59.2292 117.329C67.0192 116.459 72.6292 109.449 71.7592 101.659L70.5792 91.0894C70.1092 86.8794 67.8392 83.2994 64.6292 81.0494C66.5892 78.8894 67.8792 76.1394 68.2192 73.1494C74.3192 71.0194 78.3692 64.8894 77.6192 58.1894L76.4392 47.6194C75.5692 39.8294 68.5592 34.2194 60.7692 35.0894H60.7792Z" fill="#222222"/>
<path d="M47.8693 111.469C43.9793 111.899 40.4693 109.099 40.0393 105.199L39.6493 101.679L32.5993 102.459L32.9893 105.979C33.4193 109.869 30.6193 113.379 26.7193 113.809L16.1493 114.989C12.2593 115.419 8.74929 112.619 8.31929 108.719L7.13929 98.1493C6.70929 94.2593 9.50929 90.7493 13.4093 90.3193L16.9293 89.9293L16.5393 86.4093C16.1093 82.5193 18.9093 79.0093 22.8093 78.5793L26.3293 78.1893L25.5493 71.1393L22.0293 71.5293C18.1393 71.9593 14.6293 69.1593 14.1993 65.2593L13.0193 54.6893C12.5893 50.7993 15.3893 47.2893 19.2893 46.8593L29.8593 45.6793C33.7493 45.2493 37.2593 48.0493 37.6893 51.9493L38.0793 55.4693L45.1293 54.6893L44.7393 51.1693C44.3093 47.2793 47.1093 43.7693 51.0093 43.3393L61.5793 42.1593C65.4693 41.7293 68.9793 44.5293 69.4093 48.4293L70.5893 58.9993C71.0193 62.8893 68.2193 66.3993 64.3193 66.8293L60.7993 67.2193L61.1893 70.7393C61.6193 74.6293 58.8193 78.1393 54.9193 78.5693L51.3993 78.9593L52.1793 86.0093L55.6993 85.6193C59.5893 85.1893 63.0993 87.9893 63.5293 91.8893L64.7093 102.459C65.1393 106.349 62.3393 109.859 58.4393 110.289L47.8693 111.469Z" fill="white"/>
<path d="M115.229 43.3094L116.409 53.8794L95.2593 56.2294L94.0793 45.6594L115.229 43.3094ZM126.979 52.7094L129.329 73.8594L118.759 75.0394L116.409 53.8894L126.979 52.7094ZM95.2593 56.2394L96.4393 66.8094L85.8693 67.9894L84.6893 57.4194L95.2593 56.2394ZM85.8593 67.9894L88.2093 89.1394L77.6393 90.3194L75.2893 69.1694L85.8593 67.9894ZM118.759 75.0294L119.939 85.5994L109.369 86.7794L108.189 76.2094L118.759 75.0294ZM109.359 86.7794L110.539 97.3494L89.3893 99.6994L88.2093 89.1294L109.359 86.7794ZM113.659 29.2094L92.5093 31.5594C85.8093 32.3094 80.7293 37.5994 79.9793 44.0194C74.8693 45.8094 71.1993 50.3894 70.5793 55.7694C64.4793 57.8994 60.4293 64.0294 61.1793 70.7294L63.5293 91.8794C64.2793 98.5794 69.5693 103.659 75.9893 104.409C78.1193 110.509 84.2493 114.559 90.9493 113.809L112.099 111.459C118.799 110.709 123.879 105.419 124.629 98.9994C129.739 97.2094 133.409 92.6294 134.029 87.2494C140.129 85.1194 144.179 78.9894 143.429 72.2894L141.079 51.1394C140.329 44.4394 135.039 39.3594 128.619 38.6094C126.489 32.5094 120.359 28.4594 113.659 29.2094Z" fill="#222222"/>
<path d="M90.1691 106.759C86.2791 107.189 82.7691 104.389 82.3391 100.489L81.9491 96.9694L78.4291 97.3594C74.5391 97.7894 71.0291 94.9894 70.5991 91.0894L68.2491 69.9394C67.8191 66.0494 70.6191 62.5394 74.5191 62.1094L78.0392 61.7194L77.6492 58.1994C77.2192 54.3094 80.0191 50.7994 83.9191 50.3694L87.4392 49.9794L87.0492 46.4594C86.6192 42.5694 89.4191 39.0594 93.3191 38.6294L114.469 36.2794C118.359 35.8494 121.869 38.6494 122.299 42.5494L122.689 46.0694L126.209 45.6794C130.099 45.2494 133.609 48.0494 134.039 51.9494L136.389 73.0994C136.819 76.9894 134.019 80.4994 130.119 80.9294L126.599 81.3194L126.989 84.8394C127.419 88.7294 124.619 92.2394 120.719 92.6694L117.199 93.0594L117.589 96.5794C118.019 100.469 115.219 103.979 111.319 104.409L90.1691 106.759ZM101.519 80.5194L101.129 76.9994C100.699 73.1094 103.499 69.5994 107.399 69.1694L110.919 68.7794L110.139 61.7294L103.089 62.5094L103.479 66.0294C103.909 69.9194 101.109 73.4294 97.2091 73.8594L93.6892 74.2494L94.4692 81.2994L101.519 80.5194Z" fill="white"/>
<path d="M189.249 35.0693L190.429 45.6393L179.859 46.8193L178.679 36.2493L189.249 35.0693ZM157.529 38.5993L158.709 49.1693L148.139 50.3493L146.959 39.7793L157.529 38.5993ZM179.859 46.8193L181.039 57.3893L170.469 58.5693L172.819 79.7193L151.669 82.0693L150.489 71.4993L161.059 70.3193L158.709 49.1693L179.859 46.8193ZM183.389 78.5393L184.569 89.1093L173.999 90.2893L172.819 79.7193L183.389 78.5393ZM151.669 82.0693L152.849 92.6393L142.279 93.8193L141.099 83.2493L151.669 82.0693ZM187.679 20.9693L177.109 22.1493C172.899 22.6193 169.319 24.8893 167.069 28.0993C164.159 25.4593 160.179 24.0293 155.959 24.4993L145.389 25.6793C137.599 26.5493 131.989 33.5593 132.859 41.3493L134.039 51.9193C134.509 56.1293 136.779 59.7093 139.989 61.9593C138.029 64.1193 136.739 66.8693 136.399 69.8593C130.299 71.9893 126.249 78.1193 126.999 84.8193L128.179 95.3893C129.049 103.179 136.059 108.789 143.849 107.919L154.419 106.739C158.629 106.269 162.209 103.999 164.459 100.789C167.369 103.429 171.349 104.859 175.569 104.389L186.139 103.209C193.929 102.339 199.539 95.3293 198.669 87.5393L197.489 76.9693C197.019 72.7593 194.749 69.1793 191.539 66.9293C193.499 64.7693 194.789 62.0193 195.129 59.0293C201.229 56.8993 205.279 50.7693 204.529 44.0693L203.349 33.4993C202.479 25.7093 195.469 20.0993 187.679 20.9693Z" fill="#222222"/>
<path d="M174.769 97.3492C170.879 97.7792 167.369 94.9792 166.939 91.0792L166.549 87.5592L159.499 88.3392L159.889 91.8592C160.319 95.7492 157.519 99.2592 153.619 99.6892L143.049 100.869C139.159 101.299 135.649 98.4992 135.219 94.5992L134.039 84.0292C133.609 80.1392 136.409 76.6292 140.309 76.1992L143.829 75.8092L143.439 72.2892C143.009 68.3992 145.809 64.8892 149.709 64.4592L153.229 64.0692L152.449 57.0192L148.929 57.4092C145.039 57.8392 141.529 55.0392 141.099 51.1392L139.919 40.5692C139.489 36.6792 142.289 33.1692 146.189 32.7392L156.759 31.5592C160.649 31.1292 164.159 33.9292 164.589 37.8292L164.979 41.3492L172.029 40.5692L171.639 37.0492C171.209 33.1592 174.009 29.6492 177.909 29.2192L188.479 28.0392C192.369 27.6092 195.879 30.4092 196.309 34.3092L197.489 44.8792C197.919 48.7692 195.119 52.2792 191.219 52.7092L187.699 53.0992L188.089 56.6192C188.519 60.5092 185.719 64.0192 181.819 64.4492L178.299 64.8392L179.079 71.8892L182.599 71.4992C186.489 71.0692 189.999 73.8692 190.429 77.7692L191.609 88.3392C192.039 92.2292 189.239 95.7392 185.339 96.1692L174.769 97.3492Z" fill="white"/>
<path d="M242.119 29.1892L243.299 39.7592L222.149 42.1092L220.969 31.5392L242.119 29.1892ZM253.869 38.5892L256.219 59.7393L245.649 60.9192L243.299 39.7692L253.869 38.5892ZM222.149 42.1192L223.329 52.6892L212.759 53.8692L211.579 43.2992L222.149 42.1192ZM212.749 53.8692L215.099 75.0192L204.529 76.1992L202.179 55.0492L212.749 53.8692ZM245.649 60.9092L246.829 71.4792L236.259 72.6592L235.079 62.0892L245.649 60.9092ZM236.249 72.6592L237.429 83.2292L216.279 85.5792L215.099 75.0092L236.249 72.6592ZM240.549 15.0892L219.399 17.4392C212.699 18.1892 207.619 23.4792 206.869 29.8992C201.759 31.6892 198.089 36.2692 197.469 41.6492C191.369 43.7792 187.319 49.9092 188.069 56.6092L190.419 77.7592C191.169 84.4592 196.459 89.5392 202.879 90.2892C205.009 96.3892 211.139 100.439 217.839 99.6892L238.989 97.3392C245.689 96.5892 250.769 91.2992 251.519 84.8792C256.629 83.0892 260.299 78.5093 260.919 73.1292C267.019 70.9992 271.069 64.8692 270.319 58.1692L267.969 37.0192C267.219 30.3192 261.929 25.2392 255.509 24.4892C253.379 18.3892 247.249 14.3392 240.549 15.0892Z" fill="#222222"/>
<path d="M217.059 92.6393C213.169 93.0693 209.659 90.2693 209.229 86.3693L208.839 82.8493L205.319 83.2393C201.429 83.6693 197.919 80.8693 197.489 76.9693L195.139 55.8193C194.709 51.9293 197.509 48.4193 201.409 47.9893L204.929 47.5993L204.539 44.0793C204.109 40.1893 206.909 36.6793 210.809 36.2493L214.329 35.8593L213.939 32.3393C213.509 28.4493 216.309 24.9393 220.209 24.5093L241.359 22.1593C245.249 21.7293 248.759 24.5293 249.189 28.4293L249.579 31.9493L253.099 31.5593C256.989 31.1293 260.499 33.9293 260.929 37.8293L263.279 58.9793C263.709 62.8693 260.909 66.3793 257.009 66.8093L253.489 67.1993L253.879 70.7193C254.309 74.6093 251.509 78.1193 247.609 78.5493L244.089 78.9393L244.479 82.4593C244.909 86.3493 242.109 89.8593 238.209 90.2893L217.059 92.6393ZM228.409 66.3993L228.019 62.8793C227.589 58.9893 230.389 55.4793 234.289 55.0493L237.809 54.6593L237.029 47.6093L229.979 48.3893L230.369 51.9093C230.799 55.7993 227.999 59.3093 224.099 59.7393L220.579 60.1293L221.359 67.1793L228.409 66.3993Z" fill="white"/>
<path d="M281.066 41.6785C280.616 43.1685 281.676 51.3885 280.116 51.1785C278.366 50.6185 276.466 51.2884 274.816 51.0084C274.656 42.9184 275.506 34.3185 272.406 26.6885C269.446 40.2685 268.486 30.4285 257.896 25.9685C248.756 20.7185 239.656 15.2685 229.736 11.5785C228.956 11.3085 228.486 10.9685 229.396 10.3585C242.596 -5.76155 252.356 0.0184507 268.526 7.06845C284.916 10.7985 282.216 28.8485 281.066 41.6785Z" fill="#EA4B35"/>
<path d="M229.416 10.3585C241.026 18.1485 260.626 23.7485 270.936 35.7285C272.866 38.9685 269.226 41.5385 268.656 44.6785C268.276 47.3185 269.166 51.6185 265.246 51.5285C262.456 52.1685 260.076 49.0785 257.776 47.6985C251.406 42.4285 245.676 36.1585 237.616 33.4485C232.106 30.0985 210.436 28.2085 218.136 18.0385C223.036 13.4385 221.336 9.60848 229.416 10.3585Z" fill="#F3F4F6"/>
<path d="M282.166 68.7387C267.516 75.8287 261.526 50.2687 277.976 50.3387C287.576 50.0087 290.956 64.1687 282.546 68.6587" fill="#F3F4F6"/>
</svg>
